# xmcd CD database file
#
# Track frame offsets:
#	150
#	19379
#	35396
#	53665
#	70355
#	93347
#	110414
#	126809
#
# Disc length: 1956 seconds
#
# Revision: 1
# Processed by: cddbd v1.5.2PL0 Copyright (c) Steve Scherf et al.
# Submitted via: CDex 1.70beta2
#
DISCID=6707a208
DTITLE=Darenda Owens - Darenda Owens
DYEAR=2008
DGENRE=Country
TTITLE0=I Can Do That On My Own
TTITLE1=The Best Is Yet To Come
TTITLE2=The Signs
TTITLE3=Just To Love That Way Again
TTITLE4=I'll Trade You My Heart For Yours
TTITLE5=Hungry Love
TTITLE6=That's Not Gonna Happen
TTITLE7=My Love Will Not Change
EXTD=YEAR: 2008
EXTT0=
EXTT1=
EXTT2=
EXTT3=
EXTT4=
EXTT5=
EXTT6=
EXTT7=
PLAYORDER=
